<svg width="446" height="446" viewBox="0 0 446 446" fill="none" xmlns="http://www.w3.org/2000/svg">
<circle cx="222.913" cy="222.913" r="222.913" fill="#0B0D1A"/>
<path d="M52.9354 190.886L70.2602 179.121C72.2215 177.814 72.8752 175.526 72.2214 173.238L66.6645 158.859C86.6043 147.421 108.179 141.865 132.695 144.153C148.385 145.787 162.441 155.591 169.306 169.643C179.439 190.886 195.783 208.86 216.377 224.874L214.743 228.469C203.955 223.24 192.187 217.357 181.4 212.128C174.863 209.187 165.383 204.612 158.845 201.344C147.404 195.788 135.31 192.193 122.888 190.559V191.213C125.83 193.827 129.426 196.115 133.022 198.402C143.809 204.938 155.577 209.187 167.345 213.109C182.381 218.664 199.052 224.22 214.089 229.122L211.801 233.697C178.459 232.39 154.269 235.985 138.252 243.502C122.888 250.691 104.583 248.404 91.1807 237.946C76.1441 226.181 63.7226 209.514 52.9354 190.232V190.886Z" fill="#FBBEB4"/>
<path d="M211.147 59.5099L227.491 72.2554C229.126 73.5626 231.741 73.5626 233.702 72.2554L245.796 62.4512C262.794 77.8111 274.889 96.7658 280.119 120.623C283.715 136.309 278.485 152.323 267.044 163.434C250.046 179.775 237.951 201.017 228.798 225.201H224.876C226.51 212.782 228.472 199.71 230.106 187.945C231.087 180.755 232.068 170.297 233.375 163.107C235.01 150.689 234.682 137.943 232.394 125.525H231.414C229.779 129.446 228.798 133.695 227.818 137.617C224.876 149.708 224.549 162.454 224.549 174.872C224.222 190.886 223.895 208.534 223.895 224.547L218.665 223.893C209.512 191.866 198.726 169.97 186.304 156.898C174.536 144.48 171.267 126.178 177.151 110.165C183.689 92.1905 195.784 75.5234 210.82 59.1831L211.147 59.5099Z" fill="#FBBEB4"/>
<path d="M385.046 169.316L377.854 188.925C377.2 191.212 377.854 193.5 379.815 194.807L392.89 203.304C383.411 224.22 369.355 241.541 348.108 253.959C334.378 262.129 317.381 262.129 303.325 254.94C282.731 243.828 258.542 238.926 232.718 237.619L232.064 234.024C243.832 232.063 256.907 229.775 268.675 227.488C275.866 226.181 285.999 224.22 293.191 222.913C305.612 220.625 317.38 216.376 328.494 210.494V209.514C323.918 209.514 319.669 209.514 315.419 209.84C302.671 210.821 290.903 214.416 278.808 218.337C263.445 222.913 246.774 227.815 231.41 233.044L230.429 227.815C257.888 209.187 275.54 192.193 284.365 176.506C292.538 161.473 308.881 152.649 325.879 153.303C345.165 153.956 364.778 160.166 384.718 169.643L385.046 169.316Z" fill="#FBBEB4"/>
<path d="M334.709 368.668L313.789 368.015C311.501 368.015 309.54 369.322 308.886 371.61L304.963 386.643C282.081 384.355 261.161 375.858 242.855 359.845C230.761 349.387 225.531 333.373 228.146 317.687C232.395 294.483 229.78 270.3 222.589 245.136L225.857 243.175C231.414 253.633 237.625 265.398 243.182 275.856C246.778 282.392 251.681 291.215 255.277 297.752C261.161 308.863 269.006 318.994 278.159 327.491H278.813C277.505 322.916 276.197 318.994 274.563 315.072C269.66 303.307 262.468 293.176 255.277 283.045C246.124 269.646 236.317 255.594 226.838 242.521L231.414 239.907C257.565 260.496 279.466 271.934 296.791 275.202C313.462 278.47 327.191 290.889 331.768 307.556C336.998 325.857 336.998 346.772 334.383 368.668H334.709Z" fill="#FBBEB4"/>
<path d="M129.426 382.068L123.869 362.132C123.216 359.845 121.254 358.538 118.966 358.538L103.603 359.191C99.0264 336.642 100.333 314.419 109.813 291.869C116.024 277.163 129.753 267.032 145.444 264.744C168.652 261.476 190.88 251.672 212.782 237.292L215.723 239.907C207.224 248.404 198.072 257.881 189.9 266.705C184.997 271.934 177.805 279.777 172.575 285.006C164.076 294.157 156.558 304.615 151.327 316.053L151.981 316.706C155.577 314.419 158.846 311.477 162.115 308.863C171.921 300.693 179.113 290.562 186.631 280.431C196.437 267.685 206.898 253.633 216.377 240.887L220.3 244.482C208.859 275.856 204.609 300.039 206.897 317.687C209.186 334.681 201.34 351.348 186.958 360.825C170.94 371.283 151.327 378.146 129.753 382.394L129.426 382.068Z" fill="#FBBEB4"/>
</svg>
